<mxfile host="app.diagrams.net" modified="2021-10-06T00:18:30.849Z" agent="5.0 (Macintosh; Intel Mac OS X 10_15_7) AppleWebKit/537.36 (KHTML, like Gecko) Chrome/94.0.4606.61 Safari/537.36" etag="zgv79786DTrjOn6yDgWg" version="15.2.9" type="github" pages="2">
  <diagram id="C5RBs43oDa-KdzZeNtuy" name="Page-1">
    <mxGraphModel dx="925" dy="801" grid="1" gridSize="10" guides="1" tooltips="1" connect="1" arrows="1" fold="1" page="1" pageScale="1" pageWidth="1169" pageHeight="827" math="0" shadow="0">
      <root>
        <mxCell id="WIyWlLk6GJQsqaUBKTNV-0" />
        <mxCell id="WIyWlLk6GJQsqaUBKTNV-1" parent="WIyWlLk6GJQsqaUBKTNV-0" />
        <mxCell id="o0nJkp23As0G8Dm0HNmy-36" value="character" style="shape=table;startSize=30;container=1;collapsible=1;childLayout=tableLayout;fixedRows=1;rowLines=0;fontStyle=1;align=center;resizeLast=1;comic=0;" parent="WIyWlLk6GJQsqaUBKTNV-1" vertex="1">
          <mxGeometry x="90" y="429" width="180" height="250" as="geometry" />
        </mxCell>
        <mxCell id="o0nJkp23As0G8Dm0HNmy-37" value="" style="shape=partialRectangle;collapsible=0;dropTarget=0;pointerEvents=0;fillColor=none;top=0;left=0;bottom=1;right=0;points=[[0,0.5],[1,0.5]];portConstraint=eastwest;" parent="o0nJkp23As0G8Dm0HNmy-36" vertex="1">
          <mxGeometry y="30" width="180" height="30" as="geometry" />
        </mxCell>
        <mxCell id="o0nJkp23As0G8Dm0HNmy-38" value="PK" style="shape=partialRectangle;connectable=0;fillColor=none;top=0;left=0;bottom=0;right=0;fontStyle=1;overflow=hidden;" parent="o0nJkp23As0G8Dm0HNmy-37" vertex="1">
          <mxGeometry width="30" height="30" as="geometry">
            <mxRectangle width="30" height="30" as="alternateBounds" />
          </mxGeometry>
        </mxCell>
        <mxCell id="o0nJkp23As0G8Dm0HNmy-39" value="id" style="shape=partialRectangle;connectable=0;fillColor=none;top=0;left=0;bottom=0;right=0;align=left;spacingLeft=6;fontStyle=5;overflow=hidden;" parent="o0nJkp23As0G8Dm0HNmy-37" vertex="1">
          <mxGeometry x="30" width="150" height="30" as="geometry">
            <mxRectangle width="150" height="30" as="alternateBounds" />
          </mxGeometry>
        </mxCell>
        <mxCell id="o0nJkp23As0G8Dm0HNmy-40" value="" style="shape=partialRectangle;collapsible=0;dropTarget=0;pointerEvents=0;fillColor=none;top=0;left=0;bottom=0;right=0;points=[[0,0.5],[1,0.5]];portConstraint=eastwest;" parent="o0nJkp23As0G8Dm0HNmy-36" vertex="1">
          <mxGeometry y="60" width="180" height="30" as="geometry" />
        </mxCell>
        <mxCell id="o0nJkp23As0G8Dm0HNmy-41" value="" style="shape=partialRectangle;connectable=0;fillColor=none;top=0;left=0;bottom=0;right=0;editable=1;overflow=hidden;" parent="o0nJkp23As0G8Dm0HNmy-40" vertex="1">
          <mxGeometry width="30" height="30" as="geometry">
            <mxRectangle width="30" height="30" as="alternateBounds" />
          </mxGeometry>
        </mxCell>
        <mxCell id="o0nJkp23As0G8Dm0HNmy-42" value="name" style="shape=partialRectangle;connectable=0;fillColor=none;top=0;left=0;bottom=0;right=0;align=left;spacingLeft=6;overflow=hidden;" parent="o0nJkp23As0G8Dm0HNmy-40" vertex="1">
          <mxGeometry x="30" width="150" height="30" as="geometry">
            <mxRectangle width="150" height="30" as="alternateBounds" />
          </mxGeometry>
        </mxCell>
        <mxCell id="o0nJkp23As0G8Dm0HNmy-43" value="" style="shape=partialRectangle;collapsible=0;dropTarget=0;pointerEvents=0;fillColor=none;top=0;left=0;bottom=0;right=0;points=[[0,0.5],[1,0.5]];portConstraint=eastwest;" parent="o0nJkp23As0G8Dm0HNmy-36" vertex="1">
          <mxGeometry y="90" width="180" height="30" as="geometry" />
        </mxCell>
        <mxCell id="o0nJkp23As0G8Dm0HNmy-44" value="" style="shape=partialRectangle;connectable=0;fillColor=none;top=0;left=0;bottom=0;right=0;editable=1;overflow=hidden;" parent="o0nJkp23As0G8Dm0HNmy-43" vertex="1">
          <mxGeometry width="30" height="30" as="geometry">
            <mxRectangle width="30" height="30" as="alternateBounds" />
          </mxGeometry>
        </mxCell>
        <mxCell id="o0nJkp23As0G8Dm0HNmy-45" value="img" style="shape=partialRectangle;connectable=0;fillColor=none;top=0;left=0;bottom=0;right=0;align=left;spacingLeft=6;overflow=hidden;" parent="o0nJkp23As0G8Dm0HNmy-43" vertex="1">
          <mxGeometry x="30" width="150" height="30" as="geometry">
            <mxRectangle width="150" height="30" as="alternateBounds" />
          </mxGeometry>
        </mxCell>
        <mxCell id="o0nJkp23As0G8Dm0HNmy-46" value="" style="shape=partialRectangle;collapsible=0;dropTarget=0;pointerEvents=0;fillColor=none;top=0;left=0;bottom=0;right=0;points=[[0,0.5],[1,0.5]];portConstraint=eastwest;" parent="o0nJkp23As0G8Dm0HNmy-36" vertex="1">
          <mxGeometry y="120" width="180" height="30" as="geometry" />
        </mxCell>
        <mxCell id="o0nJkp23As0G8Dm0HNmy-47" value="" style="shape=partialRectangle;connectable=0;fillColor=none;top=0;left=0;bottom=0;right=0;editable=1;overflow=hidden;" parent="o0nJkp23As0G8Dm0HNmy-46" vertex="1">
          <mxGeometry width="30" height="30" as="geometry">
            <mxRectangle width="30" height="30" as="alternateBounds" />
          </mxGeometry>
        </mxCell>
        <mxCell id="o0nJkp23As0G8Dm0HNmy-48" value="age" style="shape=partialRectangle;connectable=0;fillColor=none;top=0;left=0;bottom=0;right=0;align=left;spacingLeft=6;overflow=hidden;" parent="o0nJkp23As0G8Dm0HNmy-46" vertex="1">
          <mxGeometry x="30" width="150" height="30" as="geometry">
            <mxRectangle width="150" height="30" as="alternateBounds" />
          </mxGeometry>
        </mxCell>
        <mxCell id="o0nJkp23As0G8Dm0HNmy-53" style="shape=partialRectangle;collapsible=0;dropTarget=0;pointerEvents=0;fillColor=none;top=0;left=0;bottom=0;right=0;points=[[0,0.5],[1,0.5]];portConstraint=eastwest;" parent="o0nJkp23As0G8Dm0HNmy-36" vertex="1">
          <mxGeometry y="150" width="180" height="30" as="geometry" />
        </mxCell>
        <mxCell id="o0nJkp23As0G8Dm0HNmy-54" style="shape=partialRectangle;connectable=0;fillColor=none;top=0;left=0;bottom=0;right=0;editable=1;overflow=hidden;" parent="o0nJkp23As0G8Dm0HNmy-53" vertex="1">
          <mxGeometry width="30" height="30" as="geometry">
            <mxRectangle width="30" height="30" as="alternateBounds" />
          </mxGeometry>
        </mxCell>
        <mxCell id="o0nJkp23As0G8Dm0HNmy-55" value="weight" style="shape=partialRectangle;connectable=0;fillColor=none;top=0;left=0;bottom=0;right=0;align=left;spacingLeft=6;overflow=hidden;" parent="o0nJkp23As0G8Dm0HNmy-53" vertex="1">
          <mxGeometry x="30" width="150" height="30" as="geometry">
            <mxRectangle width="150" height="30" as="alternateBounds" />
          </mxGeometry>
        </mxCell>
        <mxCell id="o0nJkp23As0G8Dm0HNmy-61" style="shape=partialRectangle;collapsible=0;dropTarget=0;pointerEvents=0;fillColor=none;top=0;left=0;bottom=0;right=0;points=[[0,0.5],[1,0.5]];portConstraint=eastwest;" parent="o0nJkp23As0G8Dm0HNmy-36" vertex="1">
          <mxGeometry y="180" width="180" height="30" as="geometry" />
        </mxCell>
        <mxCell id="o0nJkp23As0G8Dm0HNmy-62" style="shape=partialRectangle;connectable=0;fillColor=none;top=0;left=0;bottom=0;right=0;editable=1;overflow=hidden;" parent="o0nJkp23As0G8Dm0HNmy-61" vertex="1">
          <mxGeometry width="30" height="30" as="geometry">
            <mxRectangle width="30" height="30" as="alternateBounds" />
          </mxGeometry>
        </mxCell>
        <mxCell id="o0nJkp23As0G8Dm0HNmy-63" value="story" style="shape=partialRectangle;connectable=0;fillColor=none;top=0;left=0;bottom=0;right=0;align=left;spacingLeft=6;overflow=hidden;" parent="o0nJkp23As0G8Dm0HNmy-61" vertex="1">
          <mxGeometry x="30" width="150" height="30" as="geometry">
            <mxRectangle width="150" height="30" as="alternateBounds" />
          </mxGeometry>
        </mxCell>
        <mxCell id="1BX3ekUYuIO-wOVMaRBK-22" style="shape=partialRectangle;collapsible=0;dropTarget=0;pointerEvents=0;fillColor=none;top=0;left=0;bottom=0;right=0;points=[[0,0.5],[1,0.5]];portConstraint=eastwest;" vertex="1" parent="o0nJkp23As0G8Dm0HNmy-36">
          <mxGeometry y="210" width="180" height="30" as="geometry" />
        </mxCell>
        <mxCell id="1BX3ekUYuIO-wOVMaRBK-23" value="fk" style="shape=partialRectangle;connectable=0;fillColor=none;top=0;left=0;bottom=0;right=0;editable=1;overflow=hidden;" vertex="1" parent="1BX3ekUYuIO-wOVMaRBK-22">
          <mxGeometry width="30" height="30" as="geometry">
            <mxRectangle width="30" height="30" as="alternateBounds" />
          </mxGeometry>
        </mxCell>
        <mxCell id="1BX3ekUYuIO-wOVMaRBK-24" value="user_id" style="shape=partialRectangle;connectable=0;fillColor=none;top=0;left=0;bottom=0;right=0;align=left;spacingLeft=6;overflow=hidden;" vertex="1" parent="1BX3ekUYuIO-wOVMaRBK-22">
          <mxGeometry x="30" width="150" height="30" as="geometry">
            <mxRectangle width="150" height="30" as="alternateBounds" />
          </mxGeometry>
        </mxCell>
        <mxCell id="o0nJkp23As0G8Dm0HNmy-67" value="content" style="shape=table;startSize=30;container=1;collapsible=1;childLayout=tableLayout;fixedRows=1;rowLines=0;fontStyle=1;align=center;resizeLast=1;comic=0;" parent="WIyWlLk6GJQsqaUBKTNV-1" vertex="1">
          <mxGeometry x="670" y="429" width="180" height="250" as="geometry" />
        </mxCell>
        <mxCell id="o0nJkp23As0G8Dm0HNmy-68" value="" style="shape=partialRectangle;collapsible=0;dropTarget=0;pointerEvents=0;fillColor=none;top=0;left=0;bottom=1;right=0;points=[[0,0.5],[1,0.5]];portConstraint=eastwest;" parent="o0nJkp23As0G8Dm0HNmy-67" vertex="1">
          <mxGeometry y="30" width="180" height="30" as="geometry" />
        </mxCell>
        <mxCell id="o0nJkp23As0G8Dm0HNmy-69" value="PK" style="shape=partialRectangle;connectable=0;fillColor=none;top=0;left=0;bottom=0;right=0;fontStyle=1;overflow=hidden;" parent="o0nJkp23As0G8Dm0HNmy-68" vertex="1">
          <mxGeometry width="30" height="30" as="geometry">
            <mxRectangle width="30" height="30" as="alternateBounds" />
          </mxGeometry>
        </mxCell>
        <mxCell id="o0nJkp23As0G8Dm0HNmy-70" value="id" style="shape=partialRectangle;connectable=0;fillColor=none;top=0;left=0;bottom=0;right=0;align=left;spacingLeft=6;fontStyle=5;overflow=hidden;" parent="o0nJkp23As0G8Dm0HNmy-68" vertex="1">
          <mxGeometry x="30" width="150" height="30" as="geometry">
            <mxRectangle width="150" height="30" as="alternateBounds" />
          </mxGeometry>
        </mxCell>
        <mxCell id="o0nJkp23As0G8Dm0HNmy-71" value="" style="shape=partialRectangle;collapsible=0;dropTarget=0;pointerEvents=0;fillColor=none;top=0;left=0;bottom=0;right=0;points=[[0,0.5],[1,0.5]];portConstraint=eastwest;" parent="o0nJkp23As0G8Dm0HNmy-67" vertex="1">
          <mxGeometry y="60" width="180" height="30" as="geometry" />
        </mxCell>
        <mxCell id="o0nJkp23As0G8Dm0HNmy-72" value="" style="shape=partialRectangle;connectable=0;fillColor=none;top=0;left=0;bottom=0;right=0;editable=1;overflow=hidden;" parent="o0nJkp23As0G8Dm0HNmy-71" vertex="1">
          <mxGeometry width="30" height="30" as="geometry">
            <mxRectangle width="30" height="30" as="alternateBounds" />
          </mxGeometry>
        </mxCell>
        <mxCell id="o0nJkp23As0G8Dm0HNmy-73" value="title" style="shape=partialRectangle;connectable=0;fillColor=none;top=0;left=0;bottom=0;right=0;align=left;spacingLeft=6;overflow=hidden;" parent="o0nJkp23As0G8Dm0HNmy-71" vertex="1">
          <mxGeometry x="30" width="150" height="30" as="geometry">
            <mxRectangle width="150" height="30" as="alternateBounds" />
          </mxGeometry>
        </mxCell>
        <mxCell id="o0nJkp23As0G8Dm0HNmy-74" value="" style="shape=partialRectangle;collapsible=0;dropTarget=0;pointerEvents=0;fillColor=none;top=0;left=0;bottom=0;right=0;points=[[0,0.5],[1,0.5]];portConstraint=eastwest;" parent="o0nJkp23As0G8Dm0HNmy-67" vertex="1">
          <mxGeometry y="90" width="180" height="30" as="geometry" />
        </mxCell>
        <mxCell id="o0nJkp23As0G8Dm0HNmy-75" value="" style="shape=partialRectangle;connectable=0;fillColor=none;top=0;left=0;bottom=0;right=0;editable=1;overflow=hidden;" parent="o0nJkp23As0G8Dm0HNmy-74" vertex="1">
          <mxGeometry width="30" height="30" as="geometry">
            <mxRectangle width="30" height="30" as="alternateBounds" />
          </mxGeometry>
        </mxCell>
        <mxCell id="o0nJkp23As0G8Dm0HNmy-76" value="img" style="shape=partialRectangle;connectable=0;fillColor=none;top=0;left=0;bottom=0;right=0;align=left;spacingLeft=6;overflow=hidden;" parent="o0nJkp23As0G8Dm0HNmy-74" vertex="1">
          <mxGeometry x="30" width="150" height="30" as="geometry">
            <mxRectangle width="150" height="30" as="alternateBounds" />
          </mxGeometry>
        </mxCell>
        <mxCell id="o0nJkp23As0G8Dm0HNmy-77" value="" style="shape=partialRectangle;collapsible=0;dropTarget=0;pointerEvents=0;fillColor=none;top=0;left=0;bottom=0;right=0;points=[[0,0.5],[1,0.5]];portConstraint=eastwest;" parent="o0nJkp23As0G8Dm0HNmy-67" vertex="1">
          <mxGeometry y="120" width="180" height="30" as="geometry" />
        </mxCell>
        <mxCell id="o0nJkp23As0G8Dm0HNmy-78" value="" style="shape=partialRectangle;connectable=0;fillColor=none;top=0;left=0;bottom=0;right=0;editable=1;overflow=hidden;" parent="o0nJkp23As0G8Dm0HNmy-77" vertex="1">
          <mxGeometry width="30" height="30" as="geometry">
            <mxRectangle width="30" height="30" as="alternateBounds" />
          </mxGeometry>
        </mxCell>
        <mxCell id="o0nJkp23As0G8Dm0HNmy-79" value="creationDate" style="shape=partialRectangle;connectable=0;fillColor=none;top=0;left=0;bottom=0;right=0;align=left;spacingLeft=6;overflow=hidden;" parent="o0nJkp23As0G8Dm0HNmy-77" vertex="1">
          <mxGeometry x="30" width="150" height="30" as="geometry">
            <mxRectangle width="150" height="30" as="alternateBounds" />
          </mxGeometry>
        </mxCell>
        <mxCell id="o0nJkp23As0G8Dm0HNmy-80" style="shape=partialRectangle;collapsible=0;dropTarget=0;pointerEvents=0;fillColor=none;top=0;left=0;bottom=0;right=0;points=[[0,0.5],[1,0.5]];portConstraint=eastwest;" parent="o0nJkp23As0G8Dm0HNmy-67" vertex="1">
          <mxGeometry y="150" width="180" height="30" as="geometry" />
        </mxCell>
        <mxCell id="o0nJkp23As0G8Dm0HNmy-81" style="shape=partialRectangle;connectable=0;fillColor=none;top=0;left=0;bottom=0;right=0;editable=1;overflow=hidden;" parent="o0nJkp23As0G8Dm0HNmy-80" vertex="1">
          <mxGeometry width="30" height="30" as="geometry">
            <mxRectangle width="30" height="30" as="alternateBounds" />
          </mxGeometry>
        </mxCell>
        <mxCell id="o0nJkp23As0G8Dm0HNmy-82" value="rating" style="shape=partialRectangle;connectable=0;fillColor=none;top=0;left=0;bottom=0;right=0;align=left;spacingLeft=6;overflow=hidden;" parent="o0nJkp23As0G8Dm0HNmy-80" vertex="1">
          <mxGeometry x="30" width="150" height="30" as="geometry">
            <mxRectangle width="150" height="30" as="alternateBounds" />
          </mxGeometry>
        </mxCell>
        <mxCell id="o0nJkp23As0G8Dm0HNmy-105" style="shape=partialRectangle;collapsible=0;dropTarget=0;pointerEvents=0;fillColor=none;top=0;left=0;bottom=0;right=0;points=[[0,0.5],[1,0.5]];portConstraint=eastwest;" parent="o0nJkp23As0G8Dm0HNmy-67" vertex="1">
          <mxGeometry y="180" width="180" height="30" as="geometry" />
        </mxCell>
        <mxCell id="o0nJkp23As0G8Dm0HNmy-106" style="shape=partialRectangle;connectable=0;fillColor=none;top=0;left=0;bottom=0;right=0;editable=1;overflow=hidden;" parent="o0nJkp23As0G8Dm0HNmy-105" vertex="1">
          <mxGeometry width="30" height="30" as="geometry">
            <mxRectangle width="30" height="30" as="alternateBounds" />
          </mxGeometry>
        </mxCell>
        <mxCell id="o0nJkp23As0G8Dm0HNmy-107" value="type" style="shape=partialRectangle;connectable=0;fillColor=none;top=0;left=0;bottom=0;right=0;align=left;spacingLeft=6;overflow=hidden;" parent="o0nJkp23As0G8Dm0HNmy-105" vertex="1">
          <mxGeometry x="30" width="150" height="30" as="geometry">
            <mxRectangle width="150" height="30" as="alternateBounds" />
          </mxGeometry>
        </mxCell>
        <mxCell id="o0nJkp23As0G8Dm0HNmy-134" style="shape=partialRectangle;collapsible=0;dropTarget=0;pointerEvents=0;fillColor=none;top=0;left=0;bottom=0;right=0;points=[[0,0.5],[1,0.5]];portConstraint=eastwest;" parent="o0nJkp23As0G8Dm0HNmy-67" vertex="1">
          <mxGeometry y="210" width="180" height="30" as="geometry" />
        </mxCell>
        <mxCell id="o0nJkp23As0G8Dm0HNmy-135" value="fk" style="shape=partialRectangle;connectable=0;fillColor=none;top=0;left=0;bottom=0;right=0;editable=1;overflow=hidden;" parent="o0nJkp23As0G8Dm0HNmy-134" vertex="1">
          <mxGeometry width="30" height="30" as="geometry">
            <mxRectangle width="30" height="30" as="alternateBounds" />
          </mxGeometry>
        </mxCell>
        <mxCell id="o0nJkp23As0G8Dm0HNmy-136" value="genre_id" style="shape=partialRectangle;connectable=0;fillColor=none;top=0;left=0;bottom=0;right=0;align=left;spacingLeft=6;overflow=hidden;" parent="o0nJkp23As0G8Dm0HNmy-134" vertex="1">
          <mxGeometry x="30" width="150" height="30" as="geometry">
            <mxRectangle width="150" height="30" as="alternateBounds" />
          </mxGeometry>
        </mxCell>
        <mxCell id="o0nJkp23As0G8Dm0HNmy-89" value="genre" style="shape=table;startSize=30;container=1;collapsible=1;childLayout=tableLayout;fixedRows=1;rowLines=0;fontStyle=1;align=center;resizeLast=1;comic=0;" parent="WIyWlLk6GJQsqaUBKTNV-1" vertex="1">
          <mxGeometry x="900" y="459" width="180" height="130" as="geometry" />
        </mxCell>
        <mxCell id="o0nJkp23As0G8Dm0HNmy-90" value="" style="shape=partialRectangle;collapsible=0;dropTarget=0;pointerEvents=0;fillColor=none;top=0;left=0;bottom=1;right=0;points=[[0,0.5],[1,0.5]];portConstraint=eastwest;" parent="o0nJkp23As0G8Dm0HNmy-89" vertex="1">
          <mxGeometry y="30" width="180" height="30" as="geometry" />
        </mxCell>
        <mxCell id="o0nJkp23As0G8Dm0HNmy-91" value="PK" style="shape=partialRectangle;connectable=0;fillColor=none;top=0;left=0;bottom=0;right=0;fontStyle=1;overflow=hidden;" parent="o0nJkp23As0G8Dm0HNmy-90" vertex="1">
          <mxGeometry width="30" height="30" as="geometry">
            <mxRectangle width="30" height="30" as="alternateBounds" />
          </mxGeometry>
        </mxCell>
        <mxCell id="o0nJkp23As0G8Dm0HNmy-92" value="id" style="shape=partialRectangle;connectable=0;fillColor=none;top=0;left=0;bottom=0;right=0;align=left;spacingLeft=6;fontStyle=5;overflow=hidden;" parent="o0nJkp23As0G8Dm0HNmy-90" vertex="1">
          <mxGeometry x="30" width="150" height="30" as="geometry">
            <mxRectangle width="150" height="30" as="alternateBounds" />
          </mxGeometry>
        </mxCell>
        <mxCell id="o0nJkp23As0G8Dm0HNmy-93" value="" style="shape=partialRectangle;collapsible=0;dropTarget=0;pointerEvents=0;fillColor=none;top=0;left=0;bottom=0;right=0;points=[[0,0.5],[1,0.5]];portConstraint=eastwest;" parent="o0nJkp23As0G8Dm0HNmy-89" vertex="1">
          <mxGeometry y="60" width="180" height="30" as="geometry" />
        </mxCell>
        <mxCell id="o0nJkp23As0G8Dm0HNmy-94" value="" style="shape=partialRectangle;connectable=0;fillColor=none;top=0;left=0;bottom=0;right=0;editable=1;overflow=hidden;" parent="o0nJkp23As0G8Dm0HNmy-93" vertex="1">
          <mxGeometry width="30" height="30" as="geometry">
            <mxRectangle width="30" height="30" as="alternateBounds" />
          </mxGeometry>
        </mxCell>
        <mxCell id="o0nJkp23As0G8Dm0HNmy-95" value="name" style="shape=partialRectangle;connectable=0;fillColor=none;top=0;left=0;bottom=0;right=0;align=left;spacingLeft=6;overflow=hidden;" parent="o0nJkp23As0G8Dm0HNmy-93" vertex="1">
          <mxGeometry x="30" width="150" height="30" as="geometry">
            <mxRectangle width="150" height="30" as="alternateBounds" />
          </mxGeometry>
        </mxCell>
        <mxCell id="o0nJkp23As0G8Dm0HNmy-96" value="" style="shape=partialRectangle;collapsible=0;dropTarget=0;pointerEvents=0;fillColor=none;top=0;left=0;bottom=0;right=0;points=[[0,0.5],[1,0.5]];portConstraint=eastwest;" parent="o0nJkp23As0G8Dm0HNmy-89" vertex="1">
          <mxGeometry y="90" width="180" height="30" as="geometry" />
        </mxCell>
        <mxCell id="o0nJkp23As0G8Dm0HNmy-97" value="" style="shape=partialRectangle;connectable=0;fillColor=none;top=0;left=0;bottom=0;right=0;editable=1;overflow=hidden;" parent="o0nJkp23As0G8Dm0HNmy-96" vertex="1">
          <mxGeometry width="30" height="30" as="geometry">
            <mxRectangle width="30" height="30" as="alternateBounds" />
          </mxGeometry>
        </mxCell>
        <mxCell id="o0nJkp23As0G8Dm0HNmy-98" value="img" style="shape=partialRectangle;connectable=0;fillColor=none;top=0;left=0;bottom=0;right=0;align=left;spacingLeft=6;overflow=hidden;" parent="o0nJkp23As0G8Dm0HNmy-96" vertex="1">
          <mxGeometry x="30" width="150" height="30" as="geometry">
            <mxRectangle width="150" height="30" as="alternateBounds" />
          </mxGeometry>
        </mxCell>
        <mxCell id="o0nJkp23As0G8Dm0HNmy-108" style="edgeStyle=orthogonalEdgeStyle;rounded=0;orthogonalLoop=1;jettySize=auto;html=1;exitX=0;exitY=0.5;exitDx=0;exitDy=0;entryX=1;entryY=0.5;entryDx=0;entryDy=0;shape=link;" parent="WIyWlLk6GJQsqaUBKTNV-1" source="o0nJkp23As0G8Dm0HNmy-93" target="o0nJkp23As0G8Dm0HNmy-74" edge="1">
          <mxGeometry relative="1" as="geometry" />
        </mxCell>
        <mxCell id="o0nJkp23As0G8Dm0HNmy-109" value="*" style="edgeLabel;html=1;align=center;verticalAlign=middle;resizable=0;points=[];fontSize=17;" parent="o0nJkp23As0G8Dm0HNmy-108" vertex="1" connectable="0">
          <mxGeometry x="0.612" relative="1" as="geometry">
            <mxPoint as="offset" />
          </mxGeometry>
        </mxCell>
        <mxCell id="o0nJkp23As0G8Dm0HNmy-110" value="1" style="edgeLabel;html=1;align=center;verticalAlign=middle;resizable=0;points=[];fontSize=17;" parent="o0nJkp23As0G8Dm0HNmy-108" vertex="1" connectable="0">
          <mxGeometry x="-0.8838" y="-1" relative="1" as="geometry">
            <mxPoint x="-4" y="1" as="offset" />
          </mxGeometry>
        </mxCell>
        <mxCell id="o0nJkp23As0G8Dm0HNmy-114" value="character_content" style="shape=table;startSize=30;container=1;collapsible=1;childLayout=tableLayout;fixedRows=1;rowLines=0;fontStyle=1;align=center;resizeLast=1;comic=0;" parent="WIyWlLk6GJQsqaUBKTNV-1" vertex="1">
          <mxGeometry x="380" y="429" width="180" height="100" as="geometry" />
        </mxCell>
        <mxCell id="o0nJkp23As0G8Dm0HNmy-118" value="" style="shape=partialRectangle;collapsible=0;dropTarget=0;pointerEvents=0;fillColor=none;top=0;left=0;bottom=0;right=0;points=[[0,0.5],[1,0.5]];portConstraint=eastwest;" parent="o0nJkp23As0G8Dm0HNmy-114" vertex="1">
          <mxGeometry y="30" width="180" height="30" as="geometry" />
        </mxCell>
        <mxCell id="o0nJkp23As0G8Dm0HNmy-119" value="fk" style="shape=partialRectangle;connectable=0;fillColor=none;top=0;left=0;bottom=0;right=0;editable=1;overflow=hidden;" parent="o0nJkp23As0G8Dm0HNmy-118" vertex="1">
          <mxGeometry width="30" height="30" as="geometry">
            <mxRectangle width="30" height="30" as="alternateBounds" />
          </mxGeometry>
        </mxCell>
        <mxCell id="o0nJkp23As0G8Dm0HNmy-120" value="character_id" style="shape=partialRectangle;connectable=0;fillColor=none;top=0;left=0;bottom=0;right=0;align=left;spacingLeft=6;overflow=hidden;" parent="o0nJkp23As0G8Dm0HNmy-118" vertex="1">
          <mxGeometry x="30" width="150" height="30" as="geometry">
            <mxRectangle width="150" height="30" as="alternateBounds" />
          </mxGeometry>
        </mxCell>
        <mxCell id="o0nJkp23As0G8Dm0HNmy-121" value="" style="shape=partialRectangle;collapsible=0;dropTarget=0;pointerEvents=0;fillColor=none;top=0;left=0;bottom=0;right=0;points=[[0,0.5],[1,0.5]];portConstraint=eastwest;" parent="o0nJkp23As0G8Dm0HNmy-114" vertex="1">
          <mxGeometry y="60" width="180" height="30" as="geometry" />
        </mxCell>
        <mxCell id="o0nJkp23As0G8Dm0HNmy-122" value="fk" style="shape=partialRectangle;connectable=0;fillColor=none;top=0;left=0;bottom=0;right=0;editable=1;overflow=hidden;" parent="o0nJkp23As0G8Dm0HNmy-121" vertex="1">
          <mxGeometry width="30" height="30" as="geometry">
            <mxRectangle width="30" height="30" as="alternateBounds" />
          </mxGeometry>
        </mxCell>
        <mxCell id="o0nJkp23As0G8Dm0HNmy-123" value="content_id" style="shape=partialRectangle;connectable=0;fillColor=none;top=0;left=0;bottom=0;right=0;align=left;spacingLeft=6;overflow=hidden;" parent="o0nJkp23As0G8Dm0HNmy-121" vertex="1">
          <mxGeometry x="30" width="150" height="30" as="geometry">
            <mxRectangle width="150" height="30" as="alternateBounds" />
          </mxGeometry>
        </mxCell>
        <mxCell id="o0nJkp23As0G8Dm0HNmy-127" style="edgeStyle=orthogonalEdgeStyle;shape=link;rounded=0;orthogonalLoop=1;jettySize=auto;html=1;exitX=0;exitY=0.5;exitDx=0;exitDy=0;entryX=1;entryY=0.5;entryDx=0;entryDy=0;fontSize=17;" parent="WIyWlLk6GJQsqaUBKTNV-1" source="o0nJkp23As0G8Dm0HNmy-68" target="o0nJkp23As0G8Dm0HNmy-118" edge="1">
          <mxGeometry relative="1" as="geometry" />
        </mxCell>
        <mxCell id="o0nJkp23As0G8Dm0HNmy-132" value="1" style="edgeLabel;html=1;align=center;verticalAlign=middle;resizable=0;points=[];fontSize=17;" parent="o0nJkp23As0G8Dm0HNmy-127" vertex="1" connectable="0">
          <mxGeometry x="-0.7182" y="-1" relative="1" as="geometry">
            <mxPoint as="offset" />
          </mxGeometry>
        </mxCell>
        <mxCell id="o0nJkp23As0G8Dm0HNmy-133" value="*" style="edgeLabel;html=1;align=center;verticalAlign=middle;resizable=0;points=[];fontSize=17;" parent="o0nJkp23As0G8Dm0HNmy-127" vertex="1" connectable="0">
          <mxGeometry x="0.7364" y="-1" relative="1" as="geometry">
            <mxPoint as="offset" />
          </mxGeometry>
        </mxCell>
        <mxCell id="o0nJkp23As0G8Dm0HNmy-128" style="edgeStyle=orthogonalEdgeStyle;shape=link;rounded=0;orthogonalLoop=1;jettySize=auto;html=1;exitX=1;exitY=0.5;exitDx=0;exitDy=0;entryX=0;entryY=0.5;entryDx=0;entryDy=0;fontSize=17;" parent="WIyWlLk6GJQsqaUBKTNV-1" source="o0nJkp23As0G8Dm0HNmy-37" target="o0nJkp23As0G8Dm0HNmy-118" edge="1">
          <mxGeometry relative="1" as="geometry" />
        </mxCell>
        <mxCell id="o0nJkp23As0G8Dm0HNmy-129" value="1" style="edgeLabel;html=1;align=center;verticalAlign=middle;resizable=0;points=[];fontSize=17;" parent="o0nJkp23As0G8Dm0HNmy-128" vertex="1" connectable="0">
          <mxGeometry x="-0.6606" y="1" relative="1" as="geometry">
            <mxPoint y="1" as="offset" />
          </mxGeometry>
        </mxCell>
        <mxCell id="o0nJkp23As0G8Dm0HNmy-131" value="*" style="edgeLabel;html=1;align=center;verticalAlign=middle;resizable=0;points=[];fontSize=17;" parent="o0nJkp23As0G8Dm0HNmy-128" vertex="1" connectable="0">
          <mxGeometry x="0.7333" y="3" relative="1" as="geometry">
            <mxPoint as="offset" />
          </mxGeometry>
        </mxCell>
        <mxCell id="1BX3ekUYuIO-wOVMaRBK-0" value="user" style="shape=table;startSize=30;container=1;collapsible=1;childLayout=tableLayout;fixedRows=1;rowLines=0;fontStyle=1;align=center;resizeLast=1;comic=0;" vertex="1" parent="WIyWlLk6GJQsqaUBKTNV-1">
          <mxGeometry x="495" y="160" width="180" height="220" as="geometry" />
        </mxCell>
        <mxCell id="1BX3ekUYuIO-wOVMaRBK-1" value="" style="shape=partialRectangle;collapsible=0;dropTarget=0;pointerEvents=0;fillColor=none;top=0;left=0;bottom=1;right=0;points=[[0,0.5],[1,0.5]];portConstraint=eastwest;" vertex="1" parent="1BX3ekUYuIO-wOVMaRBK-0">
          <mxGeometry y="30" width="180" height="30" as="geometry" />
        </mxCell>
        <mxCell id="1BX3ekUYuIO-wOVMaRBK-2" value="PK" style="shape=partialRectangle;connectable=0;fillColor=none;top=0;left=0;bottom=0;right=0;fontStyle=1;overflow=hidden;" vertex="1" parent="1BX3ekUYuIO-wOVMaRBK-1">
          <mxGeometry width="30" height="30" as="geometry">
            <mxRectangle width="30" height="30" as="alternateBounds" />
          </mxGeometry>
        </mxCell>
        <mxCell id="1BX3ekUYuIO-wOVMaRBK-3" value="id" style="shape=partialRectangle;connectable=0;fillColor=none;top=0;left=0;bottom=0;right=0;align=left;spacingLeft=6;fontStyle=5;overflow=hidden;" vertex="1" parent="1BX3ekUYuIO-wOVMaRBK-1">
          <mxGeometry x="30" width="150" height="30" as="geometry">
            <mxRectangle width="150" height="30" as="alternateBounds" />
          </mxGeometry>
        </mxCell>
        <mxCell id="1BX3ekUYuIO-wOVMaRBK-4" value="" style="shape=partialRectangle;collapsible=0;dropTarget=0;pointerEvents=0;fillColor=none;top=0;left=0;bottom=0;right=0;points=[[0,0.5],[1,0.5]];portConstraint=eastwest;" vertex="1" parent="1BX3ekUYuIO-wOVMaRBK-0">
          <mxGeometry y="60" width="180" height="30" as="geometry" />
        </mxCell>
        <mxCell id="1BX3ekUYuIO-wOVMaRBK-5" value="" style="shape=partialRectangle;connectable=0;fillColor=none;top=0;left=0;bottom=0;right=0;editable=1;overflow=hidden;" vertex="1" parent="1BX3ekUYuIO-wOVMaRBK-4">
          <mxGeometry width="30" height="30" as="geometry">
            <mxRectangle width="30" height="30" as="alternateBounds" />
          </mxGeometry>
        </mxCell>
        <mxCell id="1BX3ekUYuIO-wOVMaRBK-6" value="name" style="shape=partialRectangle;connectable=0;fillColor=none;top=0;left=0;bottom=0;right=0;align=left;spacingLeft=6;overflow=hidden;" vertex="1" parent="1BX3ekUYuIO-wOVMaRBK-4">
          <mxGeometry x="30" width="150" height="30" as="geometry">
            <mxRectangle width="150" height="30" as="alternateBounds" />
          </mxGeometry>
        </mxCell>
        <mxCell id="1BX3ekUYuIO-wOVMaRBK-7" value="" style="shape=partialRectangle;collapsible=0;dropTarget=0;pointerEvents=0;fillColor=none;top=0;left=0;bottom=0;right=0;points=[[0,0.5],[1,0.5]];portConstraint=eastwest;" vertex="1" parent="1BX3ekUYuIO-wOVMaRBK-0">
          <mxGeometry y="90" width="180" height="30" as="geometry" />
        </mxCell>
        <mxCell id="1BX3ekUYuIO-wOVMaRBK-8" value="" style="shape=partialRectangle;connectable=0;fillColor=none;top=0;left=0;bottom=0;right=0;editable=1;overflow=hidden;" vertex="1" parent="1BX3ekUYuIO-wOVMaRBK-7">
          <mxGeometry width="30" height="30" as="geometry">
            <mxRectangle width="30" height="30" as="alternateBounds" />
          </mxGeometry>
        </mxCell>
        <mxCell id="1BX3ekUYuIO-wOVMaRBK-9" value="lastName" style="shape=partialRectangle;connectable=0;fillColor=none;top=0;left=0;bottom=0;right=0;align=left;spacingLeft=6;overflow=hidden;" vertex="1" parent="1BX3ekUYuIO-wOVMaRBK-7">
          <mxGeometry x="30" width="150" height="30" as="geometry">
            <mxRectangle width="150" height="30" as="alternateBounds" />
          </mxGeometry>
        </mxCell>
        <mxCell id="1BX3ekUYuIO-wOVMaRBK-10" value="" style="shape=partialRectangle;collapsible=0;dropTarget=0;pointerEvents=0;fillColor=none;top=0;left=0;bottom=0;right=0;points=[[0,0.5],[1,0.5]];portConstraint=eastwest;" vertex="1" parent="1BX3ekUYuIO-wOVMaRBK-0">
          <mxGeometry y="120" width="180" height="30" as="geometry" />
        </mxCell>
        <mxCell id="1BX3ekUYuIO-wOVMaRBK-11" value="" style="shape=partialRectangle;connectable=0;fillColor=none;top=0;left=0;bottom=0;right=0;editable=1;overflow=hidden;" vertex="1" parent="1BX3ekUYuIO-wOVMaRBK-10">
          <mxGeometry width="30" height="30" as="geometry">
            <mxRectangle width="30" height="30" as="alternateBounds" />
          </mxGeometry>
        </mxCell>
        <mxCell id="1BX3ekUYuIO-wOVMaRBK-12" value="email" style="shape=partialRectangle;connectable=0;fillColor=none;top=0;left=0;bottom=0;right=0;align=left;spacingLeft=6;overflow=hidden;" vertex="1" parent="1BX3ekUYuIO-wOVMaRBK-10">
          <mxGeometry x="30" width="150" height="30" as="geometry">
            <mxRectangle width="150" height="30" as="alternateBounds" />
          </mxGeometry>
        </mxCell>
        <mxCell id="1BX3ekUYuIO-wOVMaRBK-13" style="shape=partialRectangle;collapsible=0;dropTarget=0;pointerEvents=0;fillColor=none;top=0;left=0;bottom=0;right=0;points=[[0,0.5],[1,0.5]];portConstraint=eastwest;" vertex="1" parent="1BX3ekUYuIO-wOVMaRBK-0">
          <mxGeometry y="150" width="180" height="30" as="geometry" />
        </mxCell>
        <mxCell id="1BX3ekUYuIO-wOVMaRBK-14" style="shape=partialRectangle;connectable=0;fillColor=none;top=0;left=0;bottom=0;right=0;editable=1;overflow=hidden;" vertex="1" parent="1BX3ekUYuIO-wOVMaRBK-13">
          <mxGeometry width="30" height="30" as="geometry">
            <mxRectangle width="30" height="30" as="alternateBounds" />
          </mxGeometry>
        </mxCell>
        <mxCell id="1BX3ekUYuIO-wOVMaRBK-15" value="password" style="shape=partialRectangle;connectable=0;fillColor=none;top=0;left=0;bottom=0;right=0;align=left;spacingLeft=6;overflow=hidden;" vertex="1" parent="1BX3ekUYuIO-wOVMaRBK-13">
          <mxGeometry x="30" width="150" height="30" as="geometry">
            <mxRectangle width="150" height="30" as="alternateBounds" />
          </mxGeometry>
        </mxCell>
        <mxCell id="1BX3ekUYuIO-wOVMaRBK-16" style="shape=partialRectangle;collapsible=0;dropTarget=0;pointerEvents=0;fillColor=none;top=0;left=0;bottom=0;right=0;points=[[0,0.5],[1,0.5]];portConstraint=eastwest;" vertex="1" parent="1BX3ekUYuIO-wOVMaRBK-0">
          <mxGeometry y="180" width="180" height="30" as="geometry" />
        </mxCell>
        <mxCell id="1BX3ekUYuIO-wOVMaRBK-17" style="shape=partialRectangle;connectable=0;fillColor=none;top=0;left=0;bottom=0;right=0;editable=1;overflow=hidden;" vertex="1" parent="1BX3ekUYuIO-wOVMaRBK-16">
          <mxGeometry width="30" height="30" as="geometry">
            <mxRectangle width="30" height="30" as="alternateBounds" />
          </mxGeometry>
        </mxCell>
        <mxCell id="1BX3ekUYuIO-wOVMaRBK-18" value="type" style="shape=partialRectangle;connectable=0;fillColor=none;top=0;left=0;bottom=0;right=0;align=left;spacingLeft=6;overflow=hidden;" vertex="1" parent="1BX3ekUYuIO-wOVMaRBK-16">
          <mxGeometry x="30" width="150" height="30" as="geometry">
            <mxRectangle width="150" height="30" as="alternateBounds" />
          </mxGeometry>
        </mxCell>
        <mxCell id="1BX3ekUYuIO-wOVMaRBK-19" style="edgeStyle=orthogonalEdgeStyle;rounded=0;orthogonalLoop=1;jettySize=auto;html=1;fontSize=13;shape=link;" edge="1" parent="WIyWlLk6GJQsqaUBKTNV-1" source="1BX3ekUYuIO-wOVMaRBK-7" target="o0nJkp23As0G8Dm0HNmy-36">
          <mxGeometry relative="1" as="geometry" />
        </mxCell>
        <mxCell id="1BX3ekUYuIO-wOVMaRBK-20" value="1" style="edgeLabel;html=1;align=center;verticalAlign=middle;resizable=0;points=[];fontSize=17;" vertex="1" connectable="0" parent="1BX3ekUYuIO-wOVMaRBK-19">
          <mxGeometry x="-0.7662" y="-1" relative="1" as="geometry">
            <mxPoint as="offset" />
          </mxGeometry>
        </mxCell>
        <mxCell id="1BX3ekUYuIO-wOVMaRBK-21" value="*" style="edgeLabel;html=1;align=center;verticalAlign=middle;resizable=0;points=[];fontSize=17;" vertex="1" connectable="0" parent="1BX3ekUYuIO-wOVMaRBK-19">
          <mxGeometry x="0.8706" y="1" relative="1" as="geometry">
            <mxPoint x="-1" as="offset" />
          </mxGeometry>
        </mxCell>
      </root>
    </mxGraphModel>
  </diagram>
  <diagram id="Fz_ZsCotvR6X_32Q0fPo" name="Page-2">
    <mxGraphModel dx="1426" dy="801" grid="1" gridSize="10" guides="1" tooltips="1" connect="1" arrows="1" fold="1" page="1" pageScale="1" pageWidth="1169" pageHeight="827" math="0" shadow="0">
      <root>
        <mxCell id="3x-oYYtU-sgcc_C9mArE-0" />
        <mxCell id="3x-oYYtU-sgcc_C9mArE-1" parent="3x-oYYtU-sgcc_C9mArE-0" />
        <mxCell id="3x-oYYtU-sgcc_C9mArE-18" style="edgeStyle=orthogonalEdgeStyle;rounded=0;orthogonalLoop=1;jettySize=auto;html=1;exitX=0.5;exitY=0.5;exitDx=0;exitDy=0;exitPerimeter=0;fontSize=17;fillColor=#ffe6cc;strokeColor=#d79b00;" edge="1" parent="3x-oYYtU-sgcc_C9mArE-1" source="3x-oYYtU-sgcc_C9mArE-2" target="3x-oYYtU-sgcc_C9mArE-7">
          <mxGeometry relative="1" as="geometry" />
        </mxCell>
        <mxCell id="3x-oYYtU-sgcc_C9mArE-2" value="frontend" style="shape=umlActor;verticalLabelPosition=bottom;verticalAlign=top;html=1;outlineConnect=0;comic=0;fontSize=17;" vertex="1" parent="3x-oYYtU-sgcc_C9mArE-1">
          <mxGeometry x="30" y="384" width="30" height="60" as="geometry" />
        </mxCell>
        <mxCell id="3x-oYYtU-sgcc_C9mArE-4" value="" style="rounded=0;whiteSpace=wrap;html=1;comic=0;fontSize=17;fillColor=none;" vertex="1" parent="3x-oYYtU-sgcc_C9mArE-1">
          <mxGeometry x="150" y="40" width="970" height="760" as="geometry" />
        </mxCell>
        <mxCell id="3x-oYYtU-sgcc_C9mArE-23" style="edgeStyle=orthogonalEdgeStyle;rounded=0;orthogonalLoop=1;jettySize=auto;html=1;exitX=0.15;exitY=0.05;exitDx=0;exitDy=0;exitPerimeter=0;entryX=0.5;entryY=1;entryDx=0;entryDy=0;fontSize=17;fillColor=#d5e8d4;strokeColor=#82b366;" edge="1" parent="3x-oYYtU-sgcc_C9mArE-1" source="3x-oYYtU-sgcc_C9mArE-5" target="3x-oYYtU-sgcc_C9mArE-16">
          <mxGeometry relative="1" as="geometry">
            <Array as="points">
              <mxPoint x="1090" y="427" />
              <mxPoint x="1090" y="270" />
              <mxPoint x="938" y="270" />
            </Array>
          </mxGeometry>
        </mxCell>
        <mxCell id="3x-oYYtU-sgcc_C9mArE-88" style="edgeStyle=orthogonalEdgeStyle;rounded=0;orthogonalLoop=1;jettySize=auto;html=1;exitX=0;exitY=0.5;exitDx=0;exitDy=0;entryX=0.5;entryY=1;entryDx=0;entryDy=0;fontSize=13;fillColor=#d5e8d4;strokeColor=#82b366;" edge="1" parent="3x-oYYtU-sgcc_C9mArE-1" source="3x-oYYtU-sgcc_C9mArE-5" target="3x-oYYtU-sgcc_C9mArE-67">
          <mxGeometry relative="1" as="geometry" />
        </mxCell>
        <mxCell id="3x-oYYtU-sgcc_C9mArE-90" style="edgeStyle=orthogonalEdgeStyle;rounded=0;orthogonalLoop=1;jettySize=auto;html=1;exitX=0.15;exitY=0.95;exitDx=0;exitDy=0;exitPerimeter=0;entryX=1;entryY=0.75;entryDx=0;entryDy=0;fontSize=13;fillColor=#d5e8d4;strokeColor=#82b366;" edge="1" parent="3x-oYYtU-sgcc_C9mArE-1" source="3x-oYYtU-sgcc_C9mArE-5" target="3x-oYYtU-sgcc_C9mArE-76">
          <mxGeometry relative="1" as="geometry">
            <Array as="points">
              <mxPoint x="1089" y="555" />
            </Array>
          </mxGeometry>
        </mxCell>
        <mxCell id="3x-oYYtU-sgcc_C9mArE-92" style="edgeStyle=orthogonalEdgeStyle;rounded=0;orthogonalLoop=1;jettySize=auto;html=1;exitX=0.5;exitY=1;exitDx=0;exitDy=0;entryX=0.5;entryY=1;entryDx=0;entryDy=0;fontSize=13;fillColor=#d5e8d4;strokeColor=#82b366;" edge="1" parent="3x-oYYtU-sgcc_C9mArE-1" source="3x-oYYtU-sgcc_C9mArE-5" target="3x-oYYtU-sgcc_C9mArE-85">
          <mxGeometry relative="1" as="geometry" />
        </mxCell>
        <mxCell id="3x-oYYtU-sgcc_C9mArE-5" value="db" style="shape=datastore;whiteSpace=wrap;html=1;comic=0;fontSize=17;" vertex="1" parent="3x-oYYtU-sgcc_C9mArE-1">
          <mxGeometry x="1080" y="424" width="60" height="60" as="geometry" />
        </mxCell>
        <mxCell id="3x-oYYtU-sgcc_C9mArE-6" style="edgeStyle=orthogonalEdgeStyle;shape=link;rounded=0;orthogonalLoop=1;jettySize=auto;html=1;exitX=0.5;exitY=1;exitDx=0;exitDy=0;fontSize=17;" edge="1" parent="3x-oYYtU-sgcc_C9mArE-1" source="3x-oYYtU-sgcc_C9mArE-4" target="3x-oYYtU-sgcc_C9mArE-4">
          <mxGeometry relative="1" as="geometry" />
        </mxCell>
        <mxCell id="3x-oYYtU-sgcc_C9mArE-19" style="edgeStyle=orthogonalEdgeStyle;rounded=0;orthogonalLoop=1;jettySize=auto;html=1;exitX=0.75;exitY=0;exitDx=0;exitDy=0;entryX=0;entryY=0.375;entryDx=0;entryDy=0;entryPerimeter=0;fontSize=17;fillColor=#ffe6cc;strokeColor=#d79b00;" edge="1" parent="3x-oYYtU-sgcc_C9mArE-1" source="3x-oYYtU-sgcc_C9mArE-7" target="3x-oYYtU-sgcc_C9mArE-11">
          <mxGeometry relative="1" as="geometry" />
        </mxCell>
        <mxCell id="3x-oYYtU-sgcc_C9mArE-7" value="server.js" style="rounded=1;whiteSpace=wrap;html=1;comic=0;fontSize=17;fillColor=default;" vertex="1" parent="3x-oYYtU-sgcc_C9mArE-1">
          <mxGeometry x="170" y="424" width="120" height="60" as="geometry" />
        </mxCell>
        <mxCell id="3x-oYYtU-sgcc_C9mArE-9" value="" style="rounded=0;whiteSpace=wrap;html=1;comic=0;fontSize=17;fillColor=none;" vertex="1" parent="3x-oYYtU-sgcc_C9mArE-1">
          <mxGeometry x="320" y="153.5" width="200" height="600" as="geometry" />
        </mxCell>
        <mxCell id="3x-oYYtU-sgcc_C9mArE-10" value="" style="rounded=0;whiteSpace=wrap;html=1;comic=0;fontSize=17;fillColor=none;" vertex="1" parent="3x-oYYtU-sgcc_C9mArE-1">
          <mxGeometry x="560" y="150" width="480" height="630" as="geometry" />
        </mxCell>
        <mxCell id="3x-oYYtU-sgcc_C9mArE-93" style="edgeStyle=orthogonalEdgeStyle;rounded=0;orthogonalLoop=1;jettySize=auto;html=1;exitX=1;exitY=0.5;exitDx=0;exitDy=0;entryX=0;entryY=0.25;entryDx=0;entryDy=0;fontSize=13;fillColor=#ffe6cc;strokeColor=#d79b00;" edge="1" parent="3x-oYYtU-sgcc_C9mArE-1" source="3x-oYYtU-sgcc_C9mArE-11" target="3x-oYYtU-sgcc_C9mArE-62">
          <mxGeometry relative="1" as="geometry">
            <Array as="points">
              <mxPoint x="530" y="324" />
              <mxPoint x="530" y="368" />
            </Array>
          </mxGeometry>
        </mxCell>
        <mxCell id="3x-oYYtU-sgcc_C9mArE-94" style="edgeStyle=orthogonalEdgeStyle;rounded=0;orthogonalLoop=1;jettySize=auto;html=1;exitX=1;exitY=0.75;exitDx=0;exitDy=0;entryX=0;entryY=0.5;entryDx=0;entryDy=0;fontSize=13;fillColor=#ffe6cc;strokeColor=#d79b00;" edge="1" parent="3x-oYYtU-sgcc_C9mArE-1" source="3x-oYYtU-sgcc_C9mArE-11" target="3x-oYYtU-sgcc_C9mArE-71">
          <mxGeometry relative="1" as="geometry">
            <Array as="points">
              <mxPoint x="530" y="339" />
              <mxPoint x="530" y="540" />
            </Array>
          </mxGeometry>
        </mxCell>
        <mxCell id="3x-oYYtU-sgcc_C9mArE-95" style="edgeStyle=orthogonalEdgeStyle;rounded=0;orthogonalLoop=1;jettySize=auto;html=1;exitX=1;exitY=1;exitDx=0;exitDy=0;entryX=0;entryY=0.5;entryDx=0;entryDy=0;fontSize=13;fillColor=#ffe6cc;strokeColor=#d79b00;" edge="1" parent="3x-oYYtU-sgcc_C9mArE-1" source="3x-oYYtU-sgcc_C9mArE-11" target="3x-oYYtU-sgcc_C9mArE-80">
          <mxGeometry relative="1" as="geometry">
            <Array as="points">
              <mxPoint x="530" y="354" />
              <mxPoint x="530" y="690" />
            </Array>
          </mxGeometry>
        </mxCell>
        <mxCell id="3x-oYYtU-sgcc_C9mArE-96" style="edgeStyle=orthogonalEdgeStyle;rounded=0;orthogonalLoop=1;jettySize=auto;html=1;exitX=1;exitY=0.25;exitDx=0;exitDy=0;entryX=0.004;entryY=0.408;entryDx=0;entryDy=0;entryPerimeter=0;fontSize=13;fillColor=#ffe6cc;strokeColor=#d79b00;" edge="1" parent="3x-oYYtU-sgcc_C9mArE-1" source="3x-oYYtU-sgcc_C9mArE-11" target="3x-oYYtU-sgcc_C9mArE-14">
          <mxGeometry relative="1" as="geometry">
            <Array as="points">
              <mxPoint x="530" y="309" />
              <mxPoint x="530" y="215" />
            </Array>
          </mxGeometry>
        </mxCell>
        <mxCell id="3x-oYYtU-sgcc_C9mArE-11" value="routes.js" style="rounded=1;whiteSpace=wrap;html=1;comic=0;fontSize=17;fillColor=default;" vertex="1" parent="3x-oYYtU-sgcc_C9mArE-1">
          <mxGeometry x="360" y="293.5" width="120" height="60" as="geometry" />
        </mxCell>
        <mxCell id="ADREH9nLnKt7PQvsCFuF-1" style="edgeStyle=orthogonalEdgeStyle;rounded=0;orthogonalLoop=1;jettySize=auto;html=1;exitX=0;exitY=0.5;exitDx=0;exitDy=0;fontSize=17;fillColor=#d5e8d4;strokeColor=#82b366;" edge="1" parent="3x-oYYtU-sgcc_C9mArE-1" source="3x-oYYtU-sgcc_C9mArE-12" target="3x-oYYtU-sgcc_C9mArE-2">
          <mxGeometry relative="1" as="geometry" />
        </mxCell>
        <mxCell id="3x-oYYtU-sgcc_C9mArE-12" value="response.js" style="rounded=1;whiteSpace=wrap;html=1;comic=0;fontSize=17;fillColor=default;" vertex="1" parent="3x-oYYtU-sgcc_C9mArE-1">
          <mxGeometry x="360" y="543.5" width="120" height="60" as="geometry" />
        </mxCell>
        <mxCell id="3x-oYYtU-sgcc_C9mArE-13" value="" style="rounded=1;whiteSpace=wrap;html=1;comic=0;fontSize=17;fillColor=none;" vertex="1" parent="3x-oYYtU-sgcc_C9mArE-1">
          <mxGeometry x="580" y="161" width="440" height="139" as="geometry" />
        </mxCell>
        <mxCell id="3x-oYYtU-sgcc_C9mArE-20" style="edgeStyle=orthogonalEdgeStyle;rounded=0;orthogonalLoop=1;jettySize=auto;html=1;exitX=0.75;exitY=0;exitDx=0;exitDy=0;entryX=0.25;entryY=0;entryDx=0;entryDy=0;fontSize=17;fillColor=#ffe6cc;strokeColor=#d79b00;" edge="1" parent="3x-oYYtU-sgcc_C9mArE-1" source="3x-oYYtU-sgcc_C9mArE-14" target="3x-oYYtU-sgcc_C9mArE-15">
          <mxGeometry relative="1" as="geometry" />
        </mxCell>
        <mxCell id="3x-oYYtU-sgcc_C9mArE-98" style="edgeStyle=orthogonalEdgeStyle;rounded=0;orthogonalLoop=1;jettySize=auto;html=1;exitX=0.25;exitY=1;exitDx=0;exitDy=0;entryX=1;entryY=0.25;entryDx=0;entryDy=0;fontSize=13;fillColor=#d5e8d4;strokeColor=#82b366;" edge="1" parent="3x-oYYtU-sgcc_C9mArE-1" source="3x-oYYtU-sgcc_C9mArE-14" target="3x-oYYtU-sgcc_C9mArE-12">
          <mxGeometry relative="1" as="geometry">
            <Array as="points">
              <mxPoint x="550" y="251" />
              <mxPoint x="550" y="559" />
            </Array>
          </mxGeometry>
        </mxCell>
        <mxCell id="3x-oYYtU-sgcc_C9mArE-14" value="network.js" style="rounded=1;whiteSpace=wrap;html=1;comic=0;fontSize=17;fillColor=default;" vertex="1" parent="3x-oYYtU-sgcc_C9mArE-1">
          <mxGeometry x="602.5" y="190.5" width="120" height="60" as="geometry" />
        </mxCell>
        <mxCell id="3x-oYYtU-sgcc_C9mArE-21" style="edgeStyle=orthogonalEdgeStyle;rounded=0;orthogonalLoop=1;jettySize=auto;html=1;exitX=0.75;exitY=0;exitDx=0;exitDy=0;entryX=0.696;entryY=0.008;entryDx=0;entryDy=0;entryPerimeter=0;fontSize=17;fillColor=#ffe6cc;strokeColor=#d79b00;" edge="1" parent="3x-oYYtU-sgcc_C9mArE-1" source="3x-oYYtU-sgcc_C9mArE-15" target="3x-oYYtU-sgcc_C9mArE-16">
          <mxGeometry relative="1" as="geometry" />
        </mxCell>
        <mxCell id="3x-oYYtU-sgcc_C9mArE-25" style="edgeStyle=orthogonalEdgeStyle;rounded=0;orthogonalLoop=1;jettySize=auto;html=1;exitX=0.25;exitY=1;exitDx=0;exitDy=0;entryX=0.5;entryY=1;entryDx=0;entryDy=0;fontSize=17;fillColor=#d5e8d4;strokeColor=#82b366;" edge="1" parent="3x-oYYtU-sgcc_C9mArE-1" source="3x-oYYtU-sgcc_C9mArE-15" target="3x-oYYtU-sgcc_C9mArE-14">
          <mxGeometry relative="1" as="geometry" />
        </mxCell>
        <mxCell id="EsqZyCLPEBpLSAMy6045-1" style="edgeStyle=orthogonalEdgeStyle;rounded=0;orthogonalLoop=1;jettySize=auto;html=1;exitX=0.5;exitY=0;exitDx=0;exitDy=0;entryX=0;entryY=0.5;entryDx=0;entryDy=0;fontSize=17;" edge="1" parent="3x-oYYtU-sgcc_C9mArE-1" source="3x-oYYtU-sgcc_C9mArE-15" target="EsqZyCLPEBpLSAMy6045-0">
          <mxGeometry relative="1" as="geometry" />
        </mxCell>
        <mxCell id="3x-oYYtU-sgcc_C9mArE-15" value="controller.js" style="rounded=1;whiteSpace=wrap;html=1;comic=0;fontSize=17;fillColor=default;" vertex="1" parent="3x-oYYtU-sgcc_C9mArE-1">
          <mxGeometry x="740" y="190.5" width="120" height="60" as="geometry" />
        </mxCell>
        <mxCell id="3x-oYYtU-sgcc_C9mArE-22" style="edgeStyle=orthogonalEdgeStyle;rounded=0;orthogonalLoop=1;jettySize=auto;html=1;exitX=1;exitY=0.5;exitDx=0;exitDy=0;fontSize=17;fillColor=#ffe6cc;strokeColor=#d79b00;" edge="1" parent="3x-oYYtU-sgcc_C9mArE-1" source="3x-oYYtU-sgcc_C9mArE-16" target="3x-oYYtU-sgcc_C9mArE-5">
          <mxGeometry relative="1" as="geometry" />
        </mxCell>
        <mxCell id="3x-oYYtU-sgcc_C9mArE-24" style="edgeStyle=orthogonalEdgeStyle;rounded=0;orthogonalLoop=1;jettySize=auto;html=1;exitX=0.25;exitY=1;exitDx=0;exitDy=0;entryX=0.5;entryY=1;entryDx=0;entryDy=0;fontSize=17;fillColor=#d5e8d4;strokeColor=#82b366;" edge="1" parent="3x-oYYtU-sgcc_C9mArE-1" source="3x-oYYtU-sgcc_C9mArE-16" target="3x-oYYtU-sgcc_C9mArE-15">
          <mxGeometry relative="1" as="geometry" />
        </mxCell>
        <mxCell id="3x-oYYtU-sgcc_C9mArE-16" value="store.js" style="rounded=1;whiteSpace=wrap;html=1;comic=0;fontSize=17;fillColor=default;" vertex="1" parent="3x-oYYtU-sgcc_C9mArE-1">
          <mxGeometry x="877.5" y="190.5" width="120" height="60" as="geometry" />
        </mxCell>
        <mxCell id="3x-oYYtU-sgcc_C9mArE-41" value="auth" style="text;html=1;strokeColor=none;fillColor=none;align=center;verticalAlign=middle;whiteSpace=wrap;rounded=0;comic=0;fontSize=13;" vertex="1" parent="3x-oYYtU-sgcc_C9mArE-1">
          <mxGeometry x="780" y="278" width="40" height="20" as="geometry" />
        </mxCell>
        <mxCell id="3x-oYYtU-sgcc_C9mArE-60" value="" style="rounded=1;whiteSpace=wrap;html=1;comic=0;fontSize=17;fillColor=none;" vertex="1" parent="3x-oYYtU-sgcc_C9mArE-1">
          <mxGeometry x="580" y="323.5" width="440" height="139" as="geometry" />
        </mxCell>
        <mxCell id="3x-oYYtU-sgcc_C9mArE-61" style="edgeStyle=orthogonalEdgeStyle;rounded=0;orthogonalLoop=1;jettySize=auto;html=1;exitX=0.75;exitY=0;exitDx=0;exitDy=0;entryX=0.5;entryY=0;entryDx=0;entryDy=0;fontSize=17;fillColor=#ffe6cc;strokeColor=#d79b00;" edge="1" parent="3x-oYYtU-sgcc_C9mArE-1" source="3x-oYYtU-sgcc_C9mArE-62" target="3x-oYYtU-sgcc_C9mArE-65">
          <mxGeometry relative="1" as="geometry" />
        </mxCell>
        <mxCell id="3x-oYYtU-sgcc_C9mArE-99" style="edgeStyle=orthogonalEdgeStyle;rounded=0;orthogonalLoop=1;jettySize=auto;html=1;exitX=0.25;exitY=1;exitDx=0;exitDy=0;entryX=1;entryY=0.5;entryDx=0;entryDy=0;fontSize=13;fillColor=#d5e8d4;strokeColor=#82b366;" edge="1" parent="3x-oYYtU-sgcc_C9mArE-1" source="3x-oYYtU-sgcc_C9mArE-62" target="3x-oYYtU-sgcc_C9mArE-12">
          <mxGeometry relative="1" as="geometry">
            <Array as="points">
              <mxPoint x="550" y="413" />
              <mxPoint x="550" y="574" />
            </Array>
          </mxGeometry>
        </mxCell>
        <mxCell id="3x-oYYtU-sgcc_C9mArE-62" value="network.js" style="rounded=1;whiteSpace=wrap;html=1;comic=0;fontSize=17;fillColor=default;" vertex="1" parent="3x-oYYtU-sgcc_C9mArE-1">
          <mxGeometry x="602.5" y="353" width="120" height="60" as="geometry" />
        </mxCell>
        <mxCell id="3x-oYYtU-sgcc_C9mArE-63" style="edgeStyle=orthogonalEdgeStyle;rounded=0;orthogonalLoop=1;jettySize=auto;html=1;exitX=0.75;exitY=0;exitDx=0;exitDy=0;entryX=0.696;entryY=0.008;entryDx=0;entryDy=0;entryPerimeter=0;fontSize=17;fillColor=#ffe6cc;strokeColor=#d79b00;" edge="1" parent="3x-oYYtU-sgcc_C9mArE-1" source="3x-oYYtU-sgcc_C9mArE-65" target="3x-oYYtU-sgcc_C9mArE-67">
          <mxGeometry relative="1" as="geometry" />
        </mxCell>
        <mxCell id="3x-oYYtU-sgcc_C9mArE-64" style="edgeStyle=orthogonalEdgeStyle;rounded=0;orthogonalLoop=1;jettySize=auto;html=1;exitX=0.25;exitY=1;exitDx=0;exitDy=0;entryX=0.5;entryY=1;entryDx=0;entryDy=0;fontSize=17;fillColor=#d5e8d4;strokeColor=#82b366;" edge="1" parent="3x-oYYtU-sgcc_C9mArE-1" source="3x-oYYtU-sgcc_C9mArE-65" target="3x-oYYtU-sgcc_C9mArE-62">
          <mxGeometry relative="1" as="geometry" />
        </mxCell>
        <mxCell id="3x-oYYtU-sgcc_C9mArE-65" value="controller.js" style="rounded=1;whiteSpace=wrap;html=1;comic=0;fontSize=17;fillColor=default;" vertex="1" parent="3x-oYYtU-sgcc_C9mArE-1">
          <mxGeometry x="740" y="353" width="120" height="60" as="geometry" />
        </mxCell>
        <mxCell id="3x-oYYtU-sgcc_C9mArE-66" style="edgeStyle=orthogonalEdgeStyle;rounded=0;orthogonalLoop=1;jettySize=auto;html=1;exitX=0.25;exitY=1;exitDx=0;exitDy=0;entryX=0.5;entryY=1;entryDx=0;entryDy=0;fontSize=17;fillColor=#d5e8d4;strokeColor=#82b366;" edge="1" parent="3x-oYYtU-sgcc_C9mArE-1" source="3x-oYYtU-sgcc_C9mArE-67" target="3x-oYYtU-sgcc_C9mArE-65">
          <mxGeometry relative="1" as="geometry" />
        </mxCell>
        <mxCell id="3x-oYYtU-sgcc_C9mArE-87" style="edgeStyle=orthogonalEdgeStyle;rounded=0;orthogonalLoop=1;jettySize=auto;html=1;exitX=1;exitY=0.5;exitDx=0;exitDy=0;entryX=0;entryY=0.3;entryDx=0;entryDy=0;fontSize=13;fillColor=#ffe6cc;strokeColor=#d79b00;" edge="1" parent="3x-oYYtU-sgcc_C9mArE-1" source="3x-oYYtU-sgcc_C9mArE-67" target="3x-oYYtU-sgcc_C9mArE-5">
          <mxGeometry relative="1" as="geometry">
            <Array as="points">
              <mxPoint x="1060" y="383" />
              <mxPoint x="1060" y="442" />
            </Array>
          </mxGeometry>
        </mxCell>
        <mxCell id="3x-oYYtU-sgcc_C9mArE-67" value="store.js" style="rounded=1;whiteSpace=wrap;html=1;comic=0;fontSize=17;fillColor=default;" vertex="1" parent="3x-oYYtU-sgcc_C9mArE-1">
          <mxGeometry x="877.5" y="353" width="120" height="60" as="geometry" />
        </mxCell>
        <mxCell id="3x-oYYtU-sgcc_C9mArE-68" value="character" style="text;html=1;strokeColor=none;fillColor=none;align=center;verticalAlign=middle;whiteSpace=wrap;rounded=0;comic=0;fontSize=13;" vertex="1" parent="3x-oYYtU-sgcc_C9mArE-1">
          <mxGeometry x="780" y="440.5" width="40" height="20" as="geometry" />
        </mxCell>
        <mxCell id="3x-oYYtU-sgcc_C9mArE-69" value="" style="rounded=1;whiteSpace=wrap;html=1;comic=0;fontSize=17;fillColor=none;" vertex="1" parent="3x-oYYtU-sgcc_C9mArE-1">
          <mxGeometry x="580" y="480" width="440" height="139" as="geometry" />
        </mxCell>
        <mxCell id="3x-oYYtU-sgcc_C9mArE-70" style="edgeStyle=orthogonalEdgeStyle;rounded=0;orthogonalLoop=1;jettySize=auto;html=1;exitX=0.75;exitY=0;exitDx=0;exitDy=0;entryX=0.5;entryY=0;entryDx=0;entryDy=0;fontSize=17;fillColor=#ffe6cc;strokeColor=#d79b00;" edge="1" parent="3x-oYYtU-sgcc_C9mArE-1" source="3x-oYYtU-sgcc_C9mArE-71" target="3x-oYYtU-sgcc_C9mArE-74">
          <mxGeometry relative="1" as="geometry" />
        </mxCell>
        <mxCell id="3x-oYYtU-sgcc_C9mArE-100" style="edgeStyle=orthogonalEdgeStyle;rounded=0;orthogonalLoop=1;jettySize=auto;html=1;exitX=0.25;exitY=1;exitDx=0;exitDy=0;entryX=1;entryY=0.75;entryDx=0;entryDy=0;fontSize=13;fillColor=#d5e8d4;strokeColor=#82b366;" edge="1" parent="3x-oYYtU-sgcc_C9mArE-1" source="3x-oYYtU-sgcc_C9mArE-71" target="3x-oYYtU-sgcc_C9mArE-12">
          <mxGeometry relative="1" as="geometry">
            <Array as="points">
              <mxPoint x="633" y="589" />
              <mxPoint x="541" y="589" />
            </Array>
          </mxGeometry>
        </mxCell>
        <mxCell id="3x-oYYtU-sgcc_C9mArE-71" value="network.js" style="rounded=1;whiteSpace=wrap;html=1;comic=0;fontSize=17;fillColor=default;" vertex="1" parent="3x-oYYtU-sgcc_C9mArE-1">
          <mxGeometry x="602.5" y="509.5" width="120" height="60" as="geometry" />
        </mxCell>
        <mxCell id="3x-oYYtU-sgcc_C9mArE-72" style="edgeStyle=orthogonalEdgeStyle;rounded=0;orthogonalLoop=1;jettySize=auto;html=1;exitX=0.75;exitY=0;exitDx=0;exitDy=0;entryX=0.696;entryY=0.008;entryDx=0;entryDy=0;entryPerimeter=0;fontSize=17;fillColor=#ffe6cc;strokeColor=#d79b00;" edge="1" parent="3x-oYYtU-sgcc_C9mArE-1" source="3x-oYYtU-sgcc_C9mArE-74" target="3x-oYYtU-sgcc_C9mArE-76">
          <mxGeometry relative="1" as="geometry" />
        </mxCell>
        <mxCell id="3x-oYYtU-sgcc_C9mArE-73" style="edgeStyle=orthogonalEdgeStyle;rounded=0;orthogonalLoop=1;jettySize=auto;html=1;exitX=0.25;exitY=1;exitDx=0;exitDy=0;entryX=0.5;entryY=1;entryDx=0;entryDy=0;fontSize=17;fillColor=#d5e8d4;strokeColor=#82b366;" edge="1" parent="3x-oYYtU-sgcc_C9mArE-1" source="3x-oYYtU-sgcc_C9mArE-74" target="3x-oYYtU-sgcc_C9mArE-71">
          <mxGeometry relative="1" as="geometry" />
        </mxCell>
        <mxCell id="3x-oYYtU-sgcc_C9mArE-74" value="controller.js" style="rounded=1;whiteSpace=wrap;html=1;comic=0;fontSize=17;fillColor=default;" vertex="1" parent="3x-oYYtU-sgcc_C9mArE-1">
          <mxGeometry x="740" y="509.5" width="120" height="60" as="geometry" />
        </mxCell>
        <mxCell id="3x-oYYtU-sgcc_C9mArE-75" style="edgeStyle=orthogonalEdgeStyle;rounded=0;orthogonalLoop=1;jettySize=auto;html=1;exitX=0.25;exitY=1;exitDx=0;exitDy=0;entryX=0.5;entryY=1;entryDx=0;entryDy=0;fontSize=17;fillColor=#d5e8d4;strokeColor=#82b366;" edge="1" parent="3x-oYYtU-sgcc_C9mArE-1" source="3x-oYYtU-sgcc_C9mArE-76" target="3x-oYYtU-sgcc_C9mArE-74">
          <mxGeometry relative="1" as="geometry" />
        </mxCell>
        <mxCell id="3x-oYYtU-sgcc_C9mArE-89" style="edgeStyle=orthogonalEdgeStyle;rounded=0;orthogonalLoop=1;jettySize=auto;html=1;exitX=1;exitY=0.5;exitDx=0;exitDy=0;entryX=0;entryY=0.7;entryDx=0;entryDy=0;fontSize=13;fillColor=#ffe6cc;strokeColor=#d79b00;" edge="1" parent="3x-oYYtU-sgcc_C9mArE-1" source="3x-oYYtU-sgcc_C9mArE-76" target="3x-oYYtU-sgcc_C9mArE-5">
          <mxGeometry relative="1" as="geometry">
            <Array as="points">
              <mxPoint x="1060" y="540" />
              <mxPoint x="1060" y="466" />
            </Array>
          </mxGeometry>
        </mxCell>
        <mxCell id="3x-oYYtU-sgcc_C9mArE-76" value="store.js" style="rounded=1;whiteSpace=wrap;html=1;comic=0;fontSize=17;fillColor=default;" vertex="1" parent="3x-oYYtU-sgcc_C9mArE-1">
          <mxGeometry x="877.5" y="509.5" width="120" height="60" as="geometry" />
        </mxCell>
        <mxCell id="3x-oYYtU-sgcc_C9mArE-77" value="movie" style="text;html=1;strokeColor=none;fillColor=none;align=center;verticalAlign=middle;whiteSpace=wrap;rounded=0;comic=0;fontSize=13;" vertex="1" parent="3x-oYYtU-sgcc_C9mArE-1">
          <mxGeometry x="780" y="597" width="40" height="20" as="geometry" />
        </mxCell>
        <mxCell id="3x-oYYtU-sgcc_C9mArE-78" value="" style="rounded=1;whiteSpace=wrap;html=1;comic=0;fontSize=17;fillColor=none;" vertex="1" parent="3x-oYYtU-sgcc_C9mArE-1">
          <mxGeometry x="580" y="630" width="440" height="139" as="geometry" />
        </mxCell>
        <mxCell id="3x-oYYtU-sgcc_C9mArE-79" style="edgeStyle=orthogonalEdgeStyle;rounded=0;orthogonalLoop=1;jettySize=auto;html=1;exitX=0.75;exitY=0;exitDx=0;exitDy=0;entryX=0.5;entryY=0;entryDx=0;entryDy=0;fontSize=17;fillColor=#ffe6cc;strokeColor=#d79b00;" edge="1" parent="3x-oYYtU-sgcc_C9mArE-1" source="3x-oYYtU-sgcc_C9mArE-80" target="3x-oYYtU-sgcc_C9mArE-83">
          <mxGeometry relative="1" as="geometry" />
        </mxCell>
        <mxCell id="3x-oYYtU-sgcc_C9mArE-101" style="edgeStyle=orthogonalEdgeStyle;rounded=0;orthogonalLoop=1;jettySize=auto;html=1;exitX=0.25;exitY=1;exitDx=0;exitDy=0;entryX=1;entryY=1;entryDx=0;entryDy=0;fontSize=13;fillColor=#d5e8d4;strokeColor=#82b366;" edge="1" parent="3x-oYYtU-sgcc_C9mArE-1" source="3x-oYYtU-sgcc_C9mArE-80" target="3x-oYYtU-sgcc_C9mArE-12">
          <mxGeometry relative="1" as="geometry">
            <Array as="points">
              <mxPoint x="633" y="740" />
              <mxPoint x="550" y="740" />
              <mxPoint x="550" y="604" />
            </Array>
          </mxGeometry>
        </mxCell>
        <mxCell id="3x-oYYtU-sgcc_C9mArE-80" value="network.js" style="rounded=1;whiteSpace=wrap;html=1;comic=0;fontSize=17;fillColor=default;" vertex="1" parent="3x-oYYtU-sgcc_C9mArE-1">
          <mxGeometry x="602.5" y="659.5" width="120" height="60" as="geometry" />
        </mxCell>
        <mxCell id="3x-oYYtU-sgcc_C9mArE-81" style="edgeStyle=orthogonalEdgeStyle;rounded=0;orthogonalLoop=1;jettySize=auto;html=1;exitX=0.75;exitY=0;exitDx=0;exitDy=0;entryX=0.696;entryY=0.008;entryDx=0;entryDy=0;entryPerimeter=0;fontSize=17;fillColor=#ffe6cc;strokeColor=#d79b00;" edge="1" parent="3x-oYYtU-sgcc_C9mArE-1" source="3x-oYYtU-sgcc_C9mArE-83" target="3x-oYYtU-sgcc_C9mArE-85">
          <mxGeometry relative="1" as="geometry" />
        </mxCell>
        <mxCell id="3x-oYYtU-sgcc_C9mArE-82" style="edgeStyle=orthogonalEdgeStyle;rounded=0;orthogonalLoop=1;jettySize=auto;html=1;exitX=0.25;exitY=1;exitDx=0;exitDy=0;entryX=0.5;entryY=1;entryDx=0;entryDy=0;fontSize=17;fillColor=#d5e8d4;strokeColor=#82b366;" edge="1" parent="3x-oYYtU-sgcc_C9mArE-1" source="3x-oYYtU-sgcc_C9mArE-83" target="3x-oYYtU-sgcc_C9mArE-80">
          <mxGeometry relative="1" as="geometry" />
        </mxCell>
        <mxCell id="3x-oYYtU-sgcc_C9mArE-83" value="controller.js" style="rounded=1;whiteSpace=wrap;html=1;comic=0;fontSize=17;fillColor=default;" vertex="1" parent="3x-oYYtU-sgcc_C9mArE-1">
          <mxGeometry x="740" y="659.5" width="120" height="60" as="geometry" />
        </mxCell>
        <mxCell id="3x-oYYtU-sgcc_C9mArE-84" style="edgeStyle=orthogonalEdgeStyle;rounded=0;orthogonalLoop=1;jettySize=auto;html=1;exitX=0.25;exitY=1;exitDx=0;exitDy=0;entryX=0.5;entryY=1;entryDx=0;entryDy=0;fontSize=17;fillColor=#d5e8d4;strokeColor=#82b366;" edge="1" parent="3x-oYYtU-sgcc_C9mArE-1" source="3x-oYYtU-sgcc_C9mArE-85" target="3x-oYYtU-sgcc_C9mArE-83">
          <mxGeometry relative="1" as="geometry" />
        </mxCell>
        <mxCell id="3x-oYYtU-sgcc_C9mArE-91" style="edgeStyle=orthogonalEdgeStyle;rounded=0;orthogonalLoop=1;jettySize=auto;html=1;exitX=1;exitY=0.5;exitDx=0;exitDy=0;entryX=0.367;entryY=0.983;entryDx=0;entryDy=0;entryPerimeter=0;fontSize=13;fillColor=#ffe6cc;strokeColor=#d79b00;" edge="1" parent="3x-oYYtU-sgcc_C9mArE-1" source="3x-oYYtU-sgcc_C9mArE-85" target="3x-oYYtU-sgcc_C9mArE-5">
          <mxGeometry relative="1" as="geometry" />
        </mxCell>
        <mxCell id="3x-oYYtU-sgcc_C9mArE-85" value="store.js" style="rounded=1;whiteSpace=wrap;html=1;comic=0;fontSize=17;fillColor=default;" vertex="1" parent="3x-oYYtU-sgcc_C9mArE-1">
          <mxGeometry x="877.5" y="659.5" width="120" height="60" as="geometry" />
        </mxCell>
        <mxCell id="3x-oYYtU-sgcc_C9mArE-86" value="genre" style="text;html=1;strokeColor=none;fillColor=none;align=center;verticalAlign=middle;whiteSpace=wrap;rounded=0;comic=0;fontSize=13;" vertex="1" parent="3x-oYYtU-sgcc_C9mArE-1">
          <mxGeometry x="780" y="747" width="40" height="20" as="geometry" />
        </mxCell>
        <mxCell id="EsqZyCLPEBpLSAMy6045-0" value="email&lt;br&gt;notification" style="rounded=1;whiteSpace=wrap;html=1;comic=0;fontSize=17;fillColor=default;" vertex="1" parent="3x-oYYtU-sgcc_C9mArE-1">
          <mxGeometry x="830" y="60" width="120" height="60" as="geometry" />
        </mxCell>
      </root>
    </mxGraphModel>
  </diagram>
</mxfile>
